# xmcd
#
# Track frame offsets:
#   150
#   1166
#   17441
#   33493
#   50096
#   58163
#   81038
#
# Disc length: 1309 seconds
#
# Revision: 0
# Processed by: cddbd v1.5.1PL2 Copyright (c) Steve Scherf et al.
# Submitted via: GXTranscoder 2.0.1939
#
DISCID=4c051b07
DTITLE=123 - 312
DYEAR=1900
DGENRE=Easy Listening
TTITLE0=1
TTITLE1=2
TTITLE2=3
TTITLE3=4
TTITLE4=5
TTITLE5=6
TTITLE6=7
EXTD=
EXTT0=
EXTT1=
EXTT2=
EXTT3=
EXTT4=
EXTT5=
EXTT6=
PLAYORDER=
